{"title":"Gomorra S03 E08 - 1080p x264 - ITA (ENG SUBS) [BRSHNKV]","magnet":"magnet:?xt=urn:btih:16fab1756b37b16f7e697cd52831cd9fb0a74b1f&dn=Gomorra+S03+E08+-+1080p+x264+-+ITA+%28ENG+SUBS%29+%5BBRSHNKV%5D&tr=udp%3A%2F%2Ftracker.leechers-paradise.org%3A6969&tr=udp%3A%2F%2Fzer0day.ch%3A1337&tr=udp%3A%2F%2Fopen.demonii.com%3A1337&tr=udp%3A%2F%2Ftracker.coppersurfer.tk%3A6969&tr=udp%3A%2F%2Fexodus.desync.com%3A6969","uploader":"BRSHNKV","categoryP":"video","categoryS":"hd___tv_shows","size":"529433096","seeders":"0","leechers":"0","description":"Ciro disregards tradition in his attempt to become the next boss of his crime syndicate. The internal power struggle puts him and his entire family&apos;s life at risk. \r\n\r\n\r\n\r\nTech:\r\n\r\nFormat : MPEG-4\r\nFormat profile : Base Media / Version 2\r\nCodec ID : mp42\r\nFile size : 505 MiB\r\nDuration : 46mn 24s\r\nOverall bit rate mode : Variable\r\nOverall bit rate : 1 521 Kbps\r\nMovie name : Gomorra S03 E08 - 1080p x264 [BRSHNKV]\r\nEncoded date : UTC 2017-12-10 19:53:35\r\nTagged date : UTC 2017-12-10 19:53:35\r\nWriting application : HandBrake 1.0.2 2017012200\r\n\r\nVideo\r\nID : 1\r\nFormat : AVC\r\nFormat/Info : Advanced Video Codec\r\nFormat profile : [email protected]\r\nFormat settings, CABAC : Yes\r\nFormat settings, ReFrames : 4 frames\r\nCodec ID : avc1\r\nCodec ID/Info : Advanced Video Coding\r\nDuration : 46mn 24s\r\nBit rate : 1 350 Kbps\r\nWidth : 1 920 pixels\r\nHeight : 1 040 pixels\r\nDisplay aspect ratio : 1.85:1\r\nFrame rate mode : Constant\r\nFrame rate : 25.000 fps\r\nColor space : YUV\r\nChroma subsampling : 4:2:0\r\nBit depth : 8 bits\r\nScan type : Progressive\r\nBits/(Pixel*Frame) : 0.027\r\nStream size : 448 MiB (89%)\r\nWriting library : x264 core 148 r2708 86b7198\r\nEncoded date : UTC 2017-12-10 19:53:35\r\nTagged date : UTC 2017-12-10 19:53:35\r\nColor range : Limited\r\nColor primaries : BT.709\r\nTransfer characteristics : BT.709\r\nMatrix coefficients : BT.709\r\n\r\nAudio\r\nID : 2\r\nFormat : AAC\r\nFormat/Info : Advanced Audio Codec\r\nFormat profile : LC\r\nCodec ID : 40\r\nDuration : 46mn 24s\r\nBit rate mode : Variable\r\nBit rate : 164 Kbps\r\nChannel(s) : 2 channels\r\nChannel positions : Front: L R\r\nSampling rate : 48.0 KHz\r\nCompression mode : Lossy\r\nStream size : 54.6 MiB (11%)\r\nTitle : Stereo / Stereo\r\nLanguage : Italian\r\nEncoded date : UTC 2017-12-10 19:53:35\r\nTagged date : UTC 2017-12-10 19:53:35","last_updated":"2017-12-11T12:00:42.160Z","parsed":{"xt":"urn:btih:16fab1756b37b16f7e697cd52831cd9fb0a74b1f","dn":"Gomorra S03 E08 - 1080p x264 - ITA (ENG SUBS) [BRSHNKV]","tr":["udp://exodus.desync.com:6969","udp://open.demonii.com:1337","udp://tracker.coppersurfer.tk:6969","udp://tracker.leechers-paradise.org:6969","udp://zer0day.ch:1337"],"infoHash":"16fab1756b37b16f7e697cd52831cd9fb0a74b1f","infoHashBuffer":{"type":"Buffer","data":[22,250,177,117,107,55,177,111,126,105,124,213,40,49,205,159,176,167,75,31]},"name":"Gomorra S03 E08 - 1080p x264 - ITA (ENG SUBS) [BRSHNKV]","announce":["udp://exodus.desync.com:6969","udp://open.demonii.com:1337","udp://tracker.coppersurfer.tk:6969","udp://tracker.leechers-paradise.org:6969","udp://zer0day.ch:1337"],"urlList":[]}}